<?xml version="1.0" encoding="UTF-8"?>
<svg version="1.1" xmlns="http://www.w3.org/2000/svg" width="1366" height="768">
<path d="M0 0 C0.99 0 1.98 0 3 0 C4.98828125 2.2109375 4.98828125 2.2109375 7.3125 5.375 C8.20079799 6.56847187 9.09018402 7.76113443 9.98046875 8.953125 C10.46177246 9.60216797 10.94307617 10.25121094 11.43896484 10.91992188 C14.27590905 14.70014781 17.20957603 18.40521363 20.125 22.125 C24.55500499 27.80166328 28.88976634 33.52521065 33.08984375 39.375 C40.43200884 49.4648465 48.26578227 59.20977443 56 69 C56.68835938 69.87398438 57.37671875 70.74796875 58.0859375 71.6484375 C62.24495914 76.89389745 66.52957114 82.02075805 70.86767578 87.11791992 C73.74624188 90.50368084 76.5780238 93.9211193 79.375 97.375 C87.5524339 107.40365334 96.08969589 117.11198437 104.90600586 126.58203125 C107.44347188 129.30800438 109.94634353 132.05168686 112.375 134.875 C115.84156439 138.88080774 119.45056652 142.75072116 123.0625 146.625 C123.65272949 147.25905762 124.24295898 147.89311523 124.85107422 148.54638672 C127.65415313 151.54380825 130.48387766 154.48226673 133.43359375 157.3359375 C136 160 136 160 136 162 C136.66 162 137.32 162 138 162 C139.32446289 163.35009766 139.32446289 163.35009766 140.91015625 165.2890625 C143.95128595 168.86714043 147.15284051 172.22933218 150.49609375 175.5234375 C150.97825348 175.99992737 151.46041321 176.47641724 151.95718384 176.96734619 C153.96237243 178.94550532 155.97174998 180.91931589 157.98510742 182.88916016 C159.47224382 184.34628443 160.95325005 185.80941757 162.43359375 187.2734375 C163.74928345 188.56386963 163.74928345 188.56386963 165.09155273 189.88037109 C167 192 167 192 167 194 C167.99 194.33 168.98 194.66 170 195 C171.61328125 196.63671875 171.61328125 196.63671875 173.3125 198.6875 C175.58760665 201.38374342 177.8922017 203.93223742 180.4375 206.375 C183 209 183 209 183 211 C183.66 211 184.32 211 185 211 C186.58533702 212.71332754 188.09541215 214.49689047 189.5625 216.3125 C190.36816406 217.29863281 191.17382812 218.28476562 192.00390625 219.30078125 C194 222 194 222 195 225 C191.52458664 230.26577782 187.12331774 233.55269035 181.9375 237 C181.33607178 237.41008301 180.73464355 237.82016602 180.11499023 238.24267578 C177.45125831 239.94180777 175.53044369 240.99844445 172.3359375 241.0078125 C169.42282995 239.75098684 167.842838 238.19977042 165.6875 235.875 C162.92483894 232.98035019 160.17998942 230.20950851 157.125 227.625 C152.70710363 223.84455561 148.67388389 219.70540652 144.61328125 215.55078125 C142.05184139 212.9561364 142.05184139 212.9561364 139.16796875 210.79296875 C138.09482422 209.90544922 138.09482422 209.90544922 137 209 C137 208.34 137 207.68 137 207 C136.01 206.67 135.02 206.34 134 206 C132.3125 204.5625 132.3125 204.5625 131 203 C131 202.34 131 201.68 131 201 C130.34 201 129.68 201 129 201 C129 200.34 129 199.68 129 199 C128.34 199 127.68 199 127 199 C124.375 196.625 124.375 196.625 122 194 C122 193.34 122 192.68 122 192 C121.01 191.67 120.02 191.34 119 191 C116.8125 189.0625 116.8125 189.0625 115 187 C115 186.34 115 185.68 115 185 C114.01 184.67 113.02 184.34 112 184 C110.6328125 182.609375 110.6328125 182.609375 109.125 180.75 C105.12590655 175.99945703 100.73251461 171.70129165 96.26806641 167.39355469 C94.80925253 165.96501727 93.3999534 164.48626631 92 163 C92 162.34 92 161.68 92 161 C91.34 161 90.68 161 90 161 C88.4140625 159.390625 88.4140625 159.390625 86.625 157.25 C84.66242273 154.93096298 82.7411705 152.74780716 80.5625 150.625 C79 149 79 149 79 147 C78.34 147 77.68 147 77 147 C75.625 145.63671875 75.625 145.63671875 74 143.6875 C71.06250578 140.22982451 68.06275384 136.84755259 65 133.5 C54.24451175 121.69322343 43.88649917 109.54396041 34 97 C33.16158657 95.9439086 32.32303683 94.88792541 31.484375 93.83203125 C25.95395862 86.84993063 20.54622073 79.78562976 15.2265625 72.64160156 C11.93659675 68.22669382 8.57749239 63.87890728 5.109375 59.6015625 C4 58 4 58 4 56 C3.34 56 2.68 56 2 56 C1.67 55.34 1.34 54.68 1 54 C-2.96824978 55.56324991 -5.41603551 58.32100947 -8.1875 61.4375 C-8.67017334 61.97246094 -9.15284668 62.50742188 -9.65014648 63.05859375 C-13.48244324 67.33955887 -17.14815987 71.74531064 -20.75390625 76.21875 C-23.13895072 79.17205724 -25.56463986 82.08807478 -28 85 C-32.70497343 90.63578734 -37.35871023 96.31174078 -42 102 C-43.41653404 103.72927532 -44.8332031 105.45844004 -46.25 107.1875 C-54.88849274 117.74733876 -63.49508155 128.3321928 -72 139 C-72.928125 140.15628906 -72.928125 140.15628906 -73.875 141.3359375 C-78.17193579 146.68978088 -82.42241309 152.07826379 -86.65600586 157.48217773 C-89.54318102 161.16200743 -92.45541912 164.8201412 -95.38769531 168.46411133 C-100.7456106 175.12280743 -105.97844124 181.86439362 -111.1484375 188.66992188 C-114.65563912 193.27521162 -118.23438394 197.81221777 -121.875 202.3125 C-129.16887823 211.35101644 -136.08068618 220.67364026 -143 230 C-143.56267578 230.75539063 -144.12535156 231.51078125 -144.70507812 232.2890625 C-146.24463549 234.35662691 -147.77958831 236.42750547 -149.3125 238.5 C-149.76246338 239.10457031 -150.21242676 239.70914063 -150.67602539 240.33203125 C-154.86050865 245.60536172 -154.86050865 245.60536172 -155.80078125 251.9453125 C-152.33038622 265.18359989 -139.10205276 278.09806509 -130.73828125 288.77734375 C-119.32011853 303.37719675 -107.915677 318.04753068 -97.09765625 333.09765625 C-94.79478568 336.28393713 -92.46169223 339.44676207 -90.12548828 342.60864258 C-77.83951293 359.23755967 -65.80355623 376.02514848 -54 393 C-53.56703613 393.62245605 -53.13407227 394.24491211 -52.68798828 394.88623047 C-50.11708253 398.58515426 -47.55678529 402.29130615 -45 406 C-44.5659082 406.6285791 -44.13181641 407.2571582 -43.68457031 407.90478516 C-37.71270249 416.55333691 -31.80672937 425.23936381 -26 434 C-24.37643038 436.43845416 -22.75072188 438.87548038 -21.125 441.3125 C-18.65896749 445.00921351 -16.19355828 448.70628757 -13.73828125 452.41015625 C-8.67869534 460.03589987 -3.57100139 467.62941781 1.55953979 475.20758057 C2.65765761 476.83088516 3.75282093 478.45618715 4.84790039 480.08154297 C10.97802906 489.38373042 10.97802906 489.38373042 18 498 C18.66 498 19.32 498 20 498 C21.41438406 496.42713316 22.75604401 494.78860004 24.0625 493.125 C27.12839758 489.28771473 30.24537654 485.55984489 33.5625 481.9375 C37.14151881 478.00675003 40.47482925 473.94616652 43.765625 469.7734375 C48.3666372 464.06239089 53.19864703 458.54271264 58 453 C58.66257812 452.23429687 59.32515625 451.46859375 60.0078125 450.6796875 C66.84948527 442.81971925 73.87208415 435.1219143 80.92407227 427.45092773 C83.70264894 424.42566625 86.45437117 421.37881025 89.1875 418.3125 C100.08162126 406.20363601 111.36718537 394.50068869 122.96826172 383.06860352 C123.74057129 382.30475342 124.51288086 381.54090332 125.30859375 380.75390625 C126.34197876 379.73792358 126.34197876 379.73792358 127.39624023 378.70141602 C129.08135133 377.07735719 129.08135133 377.07735719 130 375 C130.66 375 131.32 375 132 375 C132.2475 374.38125 132.495 373.7625 132.75 373.125 C134.23740369 370.59641373 135.43678009 370.28160996 138 369 C138.6742789 367.67050002 139.34009421 366.3366924 140 365 C141.30349731 363.45599365 141.30349731 363.45599365 142.79736328 361.97558594 C143.35779327 361.41530701 143.91822327 360.85502808 144.49563599 360.277771 C145.09777924 359.68595032 145.69992249 359.09412964 146.3203125 358.484375 C147.24830154 357.5606308 147.24830154 357.5606308 148.19503784 356.6182251 C150.16703814 354.65739664 152.14588737 352.70364699 154.125 350.75 C155.46530164 349.41973201 156.80515083 348.089008 158.14453125 346.7578125 C161.42446589 343.4998985 164.71055942 340.24831467 168 337 C171.76603869 338.56282982 174.13639151 340.9063475 176.984375 343.7890625 C177.44483215 344.25234955 177.90528931 344.7156366 178.37969971 345.19296265 C179.84125078 346.66565898 181.29567168 348.14517403 182.75 349.625 C183.74302611 350.62806322 184.73651089 351.63067257 185.73046875 352.6328125 C188.15897941 355.08330835 190.58114675 357.5399667 193 360 C190.15929373 365.91851925 185.38423909 369.84979316 180.4375 374.0625 C175.59156896 378.21069344 171.18069807 382.79671171 166.74780273 387.37719727 C165.87103882 388.27136353 165.87103882 388.27136353 164.9765625 389.18359375 C164.45143066 389.72556396 163.92629883 390.26753418 163.38525391 390.82592773 C162 392 162 392 160 392 C159.75701172 392.58056152 159.51402344 393.16112305 159.26367188 393.75927734 C157.76789573 396.41156356 156.09966254 397.87724407 153.78125 399.8515625 C147.3874478 405.46568882 141.39733478 411.45194433 135.39257812 417.47705078 C133.47901421 419.39604535 131.56006923 421.30954521 129.640625 423.22265625 C128.41634533 424.44759559 127.1923753 425.67284449 125.96875 426.8984375 C125.39797729 427.46718597 124.82720459 428.03593445 124.23913574 428.62191772 C121.88585532 430.98924316 119.85792729 433.21310907 118 436 C117.34 436 116.68 436 116 436 C115.76667969 436.56203125 115.53335938 437.1240625 115.29296875 437.703125 C113.68062924 440.56734142 111.6806438 442.47252021 109.3125 444.75 C104.35154074 449.61059303 99.44043213 454.53105658 95.43359375 460.2265625 C94.96050781 460.81179688 94.48742187 461.39703125 94 462 C93.34 462 92.68 462 92 462 C91.75378906 462.56589844 91.50757813 463.13179687 91.25390625 463.71484375 C89.78463776 466.39248258 88.02247565 468.33043612 85.9375 470.5625 C81.91496601 474.9507189 78.11827019 479.46665213 74.375 484.09375 C71.83334831 487.20392904 69.23399146 490.25895587 66.625 493.3125 C62.39988255 498.27203731 58.34112004 503.33916496 54.34082031 508.48095703 C48.89963321 515.45235801 43.24439581 522.24655256 37.60546875 529.05810547 C35.35355886 531.78190281 33.11315479 534.5148865 30.875 537.25 C30.21242188 538.05953125 29.54984375 538.8690625 28.8671875 539.703125 C27.5074207 541.37580885 26.18387261 543.07813139 24.8828125 544.796875 C23.95082031 545.88742187 23.95082031 545.88742187 23 547 C22.34 547 21.68 547 21 547 C20.7525 547.61875 20.505 548.2375 20.25 548.875 C18.77952822 551.37480203 17.58596924 551.83316022 15 553 C8.29078005 546.04640449 3.21561613 538.08185563 -2 530 C-2.37914551 529.41412109 -2.75829102 528.82824219 -3.14892578 528.22460938 C-5.77845199 524.15773279 -8.38941069 520.0790458 -11 516 C-19.42767219 502.83527374 -28.08336326 489.82600267 -36.7713623 476.83239746 C-38.99851785 473.50101582 -41.22078193 470.16645998 -43.4375 466.828125 C-52.21860696 453.60558181 -61.15558316 440.50662472 -70.4140625 427.61328125 C-73.23842382 423.67632563 -76.02451597 419.71275499 -78.8125 415.75 C-83.58330356 408.97575186 -88.41416432 402.24689613 -93.2734375 395.53588867 C-96.63701232 390.89020423 -99.98383047 386.23324975 -103.3125 381.5625 C-104.87447834 379.37462688 -106.43724167 377.1873162 -108 375 C-108.60457031 374.15179688 -109.20914063 373.30359375 -109.83203125 372.4296875 C-115.12364693 365.07445699 -120.63984708 357.89372234 -126.14379883 350.69677734 C-129.58732666 346.1884029 -133.00476361 341.67141633 -136.3125 337.0625 C-144.79425111 325.27398689 -153.96780741 313.83240795 -163.5625 302.9375 C-166 300 -166 300 -166 298 C-166.66 298 -167.32 298 -168 298 C-169.62109375 296.35546875 -169.62109375 296.35546875 -171.4375 294.1875 C-172.61897919 292.78656679 -173.8062504 291.3904923 -175 290 C-175.46535156 289.39800781 -175.93070313 288.79601562 -176.41015625 288.17578125 C-177.99711903 286.75419369 -177.99711903 286.75419369 -180.4375 287.03125 C-183.71066235 288.26866504 -184.86630302 289.73286172 -187 292.5 C-187.77988281 293.5003125 -188.55976562 294.500625 -189.36328125 295.53125 C-190.24219899 296.68749127 -191.12110458 297.84374176 -192 299 C-192.99249802 300.28201825 -193.98603264 301.56323451 -194.98046875 302.84375 C-211.93659722 324.7646287 -228.08331963 347.31736135 -244 370 C-244.53705566 370.76505859 -245.07411133 371.53011719 -245.62744141 372.31835938 C-249.14521063 377.33171943 -252.6558766 382.35000049 -256.16259766 387.37109375 C-257.98483432 389.97830135 -259.81069731 392.58294228 -261.63671875 395.1875 C-269.86604346 406.94841608 -277.96026008 418.79651382 -286 430.6875 C-286.48886688 431.41052307 -286.97773376 432.13354614 -287.48141479 432.878479 C-293.3521489 441.56503529 -299.19487961 450.26943124 -305 459 C-305.80187431 460.20326433 -306.6039222 461.40641301 -307.40625 462.609375 C-308.0971875 463.64578125 -308.788125 464.6821875 -309.5 465.75 C-309.90105957 466.35013916 -310.30211914 466.95027832 -310.71533203 467.56860352 C-313.41619092 471.61291804 -316.09984228 475.66807083 -318.7734375 479.73046875 C-326.50081428 491.44202703 -334.38777241 502.92137559 -343 514 C-343.75667969 514.98097656 -344.51335937 515.96195313 -345.29296875 516.97265625 C-346.85384495 518.98839857 -348.42099949 520.99845005 -350 523 C-355.546039 522.48631664 -359.45482787 520.40743843 -364.1875 517.6875 C-364.97576172 517.24164551 -365.76402344 516.79579102 -366.57617188 516.33642578 C-373.77108107 512.2219973 -380.76343301 507.80771243 -387.7421875 503.33984375 C-393.81982768 499.45762481 -399.97439287 495.70259955 -406.125 491.9375 C-414.73110126 486.65935555 -423.26998515 481.3010456 -431.72265625 475.78125 C-436.84987318 472.43565842 -442.01953893 469.15715912 -447.1875 465.875 C-454.15815876 461.44584425 -461.11972563 457.00399887 -468.0625 452.53125 C-472.37383755 449.75635023 -476.69451897 446.99607926 -481.01416016 444.23413086 C-497.537874 433.66800474 -513.99840852 423.01145808 -530.40795898 412.26904297 C-536.59259064 408.22185688 -542.78713492 404.19118153 -549 400.1875 C-556.88672412 395.0990764 -564.69420057 389.89570126 -572.49365234 384.67480469 C-575.15563106 382.8960034 -577.82153435 381.12320678 -580.48828125 379.3515625 C-623.9655333 350.45565328 -623.9655333 350.45565328 -641 338 C-638.47346411 333.42942638 -635.31634226 329.56736795 -632 325.5625 C-627.72778571 320.35980484 -623.50622119 315.12782918 -619.375 309.8125 C-615.83081035 305.26201479 -612.18984527 300.81775922 -608.4375 296.4375 C-604.45694106 291.78990202 -600.67499729 287.03285371 -596.97802734 282.15380859 C-593.45262255 277.52800433 -589.77452733 273.03937225 -586.0625 268.5625 C-581.30725379 262.82550491 -576.62713752 257.04286313 -572.04321289 251.16821289 C-568.72756771 246.91930199 -565.37324113 242.70331136 -562 238.5 C-557.67957076 233.11368909 -553.39652617 227.69996116 -549.14013672 222.26293945 C-546.32448521 218.67119823 -543.48219863 215.10249611 -540.62109375 211.546875 C-535.26034587 204.88443115 -530.02440126 198.1393481 -524.8515625 191.33007812 C-521.3443606 186.72478801 -517.76559943 182.18779549 -514.125 177.6875 C-507.50718882 169.4863333 -501.2239676 161.04157772 -494.93212891 152.58935547 C-493.01797962 150.02409551 -491.09476382 147.4659281 -489.16796875 144.91015625 C-477.31167146 129.178874 -465.80935445 113.21359656 -454.47949219 97.10009766 C-453.0035923 95.00509917 -451.52224386 92.91406724 -450.0390625 90.82421875 C-441.24427828 78.42428074 -432.56395619 65.94211532 -424.19555664 53.24951172 C-414.23536311 38.15362518 -403.95297235 22.70560656 -391 10 C-382.56267263 12.8784384 -375.8641692 19.88490039 -369.78549099 26.21522427 C-368.00117911 27.99882136 -366.1493646 29.63898696 -364.23292542 31.27906799 C-360.32107137 34.68014054 -356.61874739 38.2394359 -352.96069336 41.90991211 C-351.98094292 42.88703407 -351.98094292 42.88703407 -350.98139954 43.88389587 C-348.84837925 46.01255749 -346.71898793 48.1448057 -344.58984375 50.27734375 C-343.09361603 51.77289671 -341.59723999 53.26830129 -340.10072327 54.76356506 C-336.97494547 57.88787399 -333.85096945 61.01397034 -330.72827148 64.14135742 C-326.74185878 68.13346689 -322.75097285 72.12106947 -318.75871944 76.107337 C-315.67097963 79.19144929 -312.58564278 82.27795669 -309.50100899 85.36517525 C-308.03105452 86.83579292 -306.56036759 88.30567887 -305.08891106 89.77479362 C-303.02680376 91.83433826 -300.96796801 93.89710125 -298.90991211 95.96069336 C-298.31179718 96.55678406 -297.71368225 97.15287476 -297.09744263 97.76702881 C-293.43511371 101.44746837 -289.9697006 105.25270078 -286.58739567 109.19229984 C-284.18600654 111.92696241 -281.60465024 114.46094069 -279 117 C-275.04193817 120.90407711 -271.26420795 124.87273729 -267.66796875 129.1171875 C-265.10166097 132.01405014 -262.30492467 134.66779472 -259.50390625 137.3359375 C-258 139 -258 139 -258 141 C-257.01 141.33 -256.02 141.66 -255 142 C-253.59765625 143.390625 -253.59765625 143.390625 -252.0625 145.25 C-248.87828632 149.00402034 -245.59773026 152.6426978 -242.25 156.25 C-241.73598633 156.80574707 -241.22197266 157.36149414 -240.69238281 157.93408203 C-238.64043847 160.15245194 -236.58709823 162.36947793 -234.52783203 164.58105469 C-229.77722386 169.68361983 -225.10351303 174.79793696 -220.75 180.25 C-216.27199565 185.8192148 -211.41616434 190.99183379 -206.49121094 196.16699219 C-203.40291223 199.41567949 -200.37375067 202.6912927 -197.44140625 206.08203125 C-194.29246874 209.71136769 -190.98684516 213.1315099 -187.5625 216.5 C-186.75135742 217.304375 -186.75135742 217.304375 -185.92382812 218.125 C-184.61823383 219.41904036 -183.30947004 220.70988174 -182 222 C-177.52403807 219.68877602 -174.55772976 216.56444066 -171.375 212.75 C-170.85357422 212.13302246 -170.33214844 211.51604492 -169.79492188 210.88037109 C-164.7053078 204.78298881 -160.04831159 198.39773761 -155.41503906 191.95166016 C-152.94248868 188.54145177 -150.40798849 185.17792791 -147.875 181.8125 C-146.86197459 180.46614928 -145.84895366 179.11979518 -144.8359375 177.7734375 C-144.11229004 176.81195801 -144.11229004 176.81195801 -143.37402344 175.83105469 C-142.13167932 174.17547884 -140.89738651 172.51386878 -139.6640625 170.8515625 C-135.07518553 164.67231662 -130.33926876 158.6332769 -125.51391602 152.63867188 C-122.2729931 148.60771932 -119.08029278 144.54537269 -115.9375 140.4375 C-107.46428091 129.3706451 -98.7952964 118.47481427 -89.98828125 107.671875 C-87.64278467 104.79387546 -85.31398453 101.90344164 -83 99 C-71.54163225 84.63464678 -59.85526703 70.44895444 -48.16357422 56.2734375 C-45.57138797 53.1293483 -42.98089148 49.98442079 -40.41796875 46.81640625 C-36.17054856 41.57221845 -31.78852604 36.51025175 -27.2421875 31.5234375 C-24.95484096 28.94917642 -22.78451729 26.30710511 -20.625 23.625 C-16.47394738 18.49080334 -12.08003189 13.64863067 -7.578125 8.82421875 C-5.72879781 6.79836487 -4.04501887 4.79442008 -2.359375 2.64453125 C-1.19148437 1.33548828 -1.19148437 1.33548828 0 0 Z M-386.91796875 60.80078125 C-391.55144302 65.92870545 -395.47133589 71.06601844 -399.06640625 76.9609375 C-401.33649909 80.52888139 -403.79526935 83.91649857 -406.3125 87.3125 C-407.02212891 88.270354 -407.02212891 88.270354 -407.74609375 89.24755859 C-408.70289573 90.53878627 -409.65976401 91.82996481 -410.61669922 93.12109375 C-412.73358443 95.99641118 -414.80620415 98.90248071 -416.875 101.8125 C-426.86698654 115.84397002 -437.00479329 129.76476168 -447.24267578 143.61767578 C-448.9775979 145.9696305 -450.70655144 148.32584839 -452.43359375 150.68359375 C-459.25288767 159.98536268 -466.16848095 169.20612523 -473.17480469 178.36791992 C-477.18961414 183.61824267 -481.17374636 188.88922807 -485.125 194.1875 C-491.0455366 202.11328267 -497.12136 209.91466136 -503.21337891 217.70898438 C-504.99559382 219.99434988 -506.77043888 222.28524185 -508.54296875 224.578125 C-514.72748444 232.57209537 -520.98628715 240.49089477 -527.38696289 248.31298828 C-530.66253932 252.32498117 -533.85922205 256.38152827 -537 260.5 C-541.26207899 266.08836614 -545.66639299 271.54628513 -550.11328125 276.98828125 C-554.08202596 281.85139097 -557.97722499 286.76596817 -561.83789062 291.71508789 C-565.30966749 296.15312589 -568.86535444 300.51756411 -572.4375 304.875 C-578.87192682 312.73490281 -584.96897506 320.82823287 -591 329 C-589.67351872 332.07537761 -588.44310023 333.70888009 -585.68359375 335.59375 C-585.01070312 336.06047119 -584.3378125 336.52719238 -583.64453125 337.00805664 C-582.91621094 337.50039795 -582.18789063 337.99273926 -581.4375 338.5 C-579.88386921 339.57125881 -578.33049069 340.64288356 -576.77734375 341.71484375 C-575.58407471 342.53251221 -575.58407471 342.53251221 -574.36669922 343.36669922 C-571.41946479 345.40063757 -568.50798278 347.48206359 -565.59594727 349.56591797 C-559.00549069 354.27174194 -552.32739189 358.79320906 -545.50219727 363.15039062 C-540.34675787 366.45337291 -535.24170052 369.82694897 -530.15234375 373.23046875 C-529.44264435 373.70494446 -528.73294495 374.17942017 -528.0017395 374.66827393 C-525.11284297 376.60067133 -522.22449569 378.53386032 -519.33935547 380.47186279 C-511.21127472 385.93156373 -503.03172111 391.27421033 -494.7097168 396.43409729 C-488.70146009 400.16539255 -482.80637509 404.05315668 -476.9375 408 C-475.90657227 408.69005127 -474.87564453 409.38010254 -473.81347656 410.09106445 C-470.87424254 412.05861849 -467.93686427 414.02891123 -465 416 C-455.1769431 422.58549507 -445.2974033 429.07675388 -435.375 435.51171875 C-429.74330513 439.16423366 -424.1213027 442.83151885 -418.5 446.5 C-415.59092292 448.39745556 -412.68171267 450.29470677 -409.77246094 452.19189453 C-407.99433686 453.35152705 -406.21633142 454.51134151 -404.43847656 455.67138672 C-390.34555309 464.86448972 -376.18249563 473.94596482 -362 483 C-358.65588517 479.75469154 -356.0837419 476.33860033 -353.5625 472.4375 C-352.65994602 471.06308446 -351.75624952 469.68941869 -350.8515625 468.31640625 C-350.38008789 467.59984863 -349.90861328 466.88329102 -349.42285156 466.14501953 C-347.13398101 462.69443328 -344.78481206 459.28597997 -342.4375 455.875 C-334.6220943 444.49623903 -326.91398955 433.04474372 -319.19702148 421.59912109 C-310.28351367 408.38482813 -301.29909498 395.22259447 -292.125 382.1875 C-287.53891846 375.65473556 -282.99577516 369.09522057 -278.5 362.5 C-271.75284522 352.60588589 -264.88907374 342.79565264 -258 333 C-257.48050781 332.26007813 -256.96101563 331.52015625 -256.42578125 330.7578125 C-249.24855175 320.53625686 -241.97419483 310.38831625 -234.64550781 300.27490234 C-232.9963372 297.99493621 -231.35279572 295.71101766 -229.7109375 293.42578125 C-228.62000381 291.90870159 -227.52885906 290.39177369 -226.4375 288.875 C-225.90382813 288.1332251 -225.37015625 287.3914502 -224.8203125 286.62719727 C-221.13895084 281.52902515 -217.36708497 276.50656499 -213.5625 271.5 C-209.30160319 265.88452266 -205.39433087 260.1931651 -202 254 C-207.34330574 246.8830291 -212.76503322 239.99720652 -218.80078125 233.4453125 C-221.04717067 230.9475509 -223.15117758 228.37257227 -225.25 225.75 C-229.91007982 219.98621707 -234.93574521 214.61236378 -240.00390625 209.2109375 C-242.23914733 206.82640515 -244.4270028 204.4123794 -246.5625 201.9375 C-250.0982305 197.84026391 -253.78104962 193.88414339 -257.45947266 189.91552734 C-261.20011644 185.87665721 -264.8882565 181.7943431 -268.55859375 177.69140625 C-270.49364065 175.55821055 -272.44408318 173.44422808 -274.41015625 171.33984375 C-275.00320557 170.7048999 -275.59625488 170.06995605 -276.20727539 169.41577148 C-277.3853671 168.15681933 -278.56548503 166.89975964 -279.74780273 165.64477539 C-283.89087917 161.21824167 -283.89087917 161.21824167 -285 159 C-285.66 159 -286.32 159 -287 159 C-287.24363281 158.42765625 -287.48726562 157.8553125 -287.73828125 157.265625 C-289.22517298 154.59566462 -290.98083908 152.86170993 -293.1875 150.75 C-296.06501117 147.9412192 -298.82989001 145.12333744 -301.4375 142.0625 C-304.15619248 138.8896408 -307.02751675 135.93661618 -310 133 C-313.56400302 129.47893677 -316.90304168 125.86813992 -320.15625 122.0625 C-323.08171521 118.7899457 -326.2310328 115.74873122 -329.375 112.6875 C-331.37298777 110.64194109 -333.22906366 108.59010848 -335.08325195 106.42114258 C-339.28632334 101.60172009 -343.76717633 97.08892375 -348.29296875 92.57421875 C-349.16141922 91.70481155 -350.02986969 90.83540436 -350.92463684 89.93965149 C-352.74792749 88.11568428 -354.57246577 86.29296346 -356.39819336 84.47143555 C-359.19305284 81.68195785 -361.9825027 78.88715 -364.77148438 76.09179688 C-366.5491584 74.31478322 -368.32714236 72.53807956 -370.10546875 70.76171875 C-370.9378154 69.92734787 -371.77016205 69.09297699 -372.62773132 68.23332214 C-373.40566544 67.45854019 -374.18359955 66.68375824 -374.98510742 65.88549805 C-375.66570724 65.20569382 -376.34630707 64.52588959 -377.04753113 63.82548523 C-381.64035285 58.92098765 -381.64035285 58.92098765 -386.91796875 60.80078125 Z " fill="#F82D8F" transform="translate(871,84)"/>
</svg>
